<svg width="91" height="32" viewBox="0 0 91 32" fill="none" xmlns="http://www.w3.org/2000/svg">
<path d="M25.9276 4.44C26.589 4.568 27.0796 4.792 27.3996 5.112C27.741 5.432 27.9116 5.80533 27.9116 6.232C27.9116 6.936 27.709 7.448 27.3036 7.768C26.9196 8.088 26.301 8.216 25.4476 8.152C23.5276 8.00267 22.0236 7.90667 20.9356 7.864C19.869 7.8 18.461 7.75733 16.7116 7.736C15.9223 11.6613 15.197 15.608 14.5356 19.576C14.301 21.0267 14.0556 22.712 13.7996 24.632C13.5436 26.5307 13.373 28.0667 13.2876 29.24C13.245 29.8587 12.989 30.3387 12.5196 30.68C12.0503 31 11.485 31.16 10.8236 31.16C10.1196 31.16 9.57563 30.9893 9.19163 30.648C8.80763 30.3067 8.61563 29.8587 8.61563 29.304C8.61563 28.792 8.69029 27.9493 8.83963 26.776C9.01029 25.5813 9.20229 24.3333 9.41563 23.032C9.65029 21.7307 9.83163 20.6 9.95963 19.64C10.1943 18.0187 10.461 16.408 10.7596 14.808C11.0583 13.208 11.357 11.6933 11.6556 10.264C11.7196 9.944 11.7943 9.58133 11.8796 9.176C11.965 8.74933 12.061 8.28 12.1676 7.768C10.077 7.832 8.43429 8.00267 7.23962 8.28C6.04496 8.55733 5.19163 8.952 4.67963 9.464C4.18896 9.95467 3.94363 10.5947 3.94363 11.384C3.94363 12.1093 4.15696 12.8027 4.58363 13.464C4.66896 13.6133 4.71163 13.7733 4.71163 13.944C4.71163 14.3493 4.46629 14.7333 3.97563 15.096C3.50629 15.4373 3.01563 15.608 2.50363 15.608C2.14096 15.608 1.84229 15.5013 1.60763 15.288C1.18096 14.9253 0.828958 14.4133 0.551625 13.752C0.274292 13.0693 0.135625 12.3013 0.135625 11.448C0.135625 9.63467 0.722292 8.184 1.89563 7.096C3.09029 5.98667 4.89296 5.176 7.30363 4.664C9.73563 4.152 12.8503 3.896 16.6476 3.896C18.9943 3.896 20.861 3.93866 22.2476 4.024C23.6556 4.10933 24.8823 4.248 25.9276 4.44ZM24.1674 31.16C23.3567 31.16 22.7807 30.7333 22.4394 29.88C22.1194 29.0267 21.9594 27.6613 21.9594 25.784C21.9594 23.0107 22.354 20.376 23.1434 17.88C23.3354 17.2613 23.6447 16.8133 24.0714 16.536C24.5194 16.2373 25.138 16.088 25.9274 16.088C26.354 16.088 26.6527 16.1413 26.8234 16.248C26.994 16.3547 27.0794 16.5573 27.0794 16.856C27.0794 17.1973 26.9194 17.9653 26.5994 19.16C26.386 20.0133 26.2154 20.76 26.0874 21.4C25.9594 22.04 25.8527 22.8293 25.7674 23.768C26.4714 21.9333 27.2607 20.44 28.1354 19.288C29.01 18.136 29.8634 17.3147 30.6954 16.824C31.5487 16.3333 32.3274 16.088 33.0314 16.088C34.418 16.088 35.1114 16.7813 35.1114 18.168C35.1114 18.4453 35.0154 19.1173 34.8234 20.184C34.6527 21.0373 34.5674 21.5707 34.5674 21.784C34.5674 22.5307 34.834 22.904 35.3674 22.904C35.9647 22.904 36.7327 22.4347 37.6714 21.496C37.9487 21.2187 38.2367 21.08 38.5354 21.08C38.8127 21.08 39.026 21.208 39.1754 21.464C39.346 21.6987 39.4314 22.0187 39.4314 22.424C39.4314 23.2133 39.218 23.832 38.7914 24.28C38.194 24.8987 37.49 25.432 36.6794 25.88C35.89 26.3067 35.0474 26.52 34.1514 26.52C33.0207 26.52 32.1567 26.232 31.5594 25.656C30.9834 25.08 30.6954 24.3013 30.6954 23.32C30.6954 23 30.7274 22.68 30.7914 22.36C30.834 21.9333 30.8554 21.6453 30.8554 21.496C30.8554 21.1547 30.738 20.984 30.5034 20.984C30.1834 20.984 29.7567 21.3467 29.2234 22.072C28.7114 22.776 28.1994 23.7147 27.6874 24.888C27.1754 26.0613 26.7594 27.2987 26.4394 28.6C26.2047 29.6027 25.9274 30.2853 25.6074 30.648C25.3087 30.9893 24.8287 31.16 24.1674 31.16ZM40.3939 31.16C39.0712 31.16 38.0152 30.68 37.2259 29.72C36.4365 28.76 36.0419 27.5013 36.0419 25.944C36.0419 24.2373 36.4365 22.6267 37.2259 21.112C38.0152 19.576 39.0605 18.3493 40.3619 17.432C41.6845 16.4933 43.0819 16.024 44.5539 16.024C45.0232 16.024 45.3325 16.12 45.4819 16.312C45.6525 16.4827 45.7912 16.8027 45.8979 17.272C46.3459 17.1867 46.8152 17.144 47.3059 17.144C48.3512 17.144 48.8739 17.5173 48.8739 18.264C48.8739 18.712 48.7139 19.7787 48.3939 21.464C47.9032 23.9173 47.6579 25.624 47.6579 26.584C47.6579 26.904 47.7325 27.16 47.8819 27.352C48.0525 27.544 48.2659 27.64 48.5219 27.64C48.9272 27.64 49.4179 27.384 49.9939 26.872C50.5699 26.3387 51.3485 25.4853 52.3299 24.312C52.5859 24.0133 52.8739 23.864 53.1939 23.864C53.4712 23.864 53.6845 23.992 53.8339 24.248C54.0045 24.504 54.0899 24.856 54.0899 25.304C54.0899 26.1573 53.8872 26.8187 53.4819 27.288C52.6072 28.376 51.6792 29.2933 50.6979 30.04C49.7165 30.7867 48.7672 31.16 47.8499 31.16C47.1459 31.16 46.4952 30.9253 45.8979 30.456C45.3219 29.9653 44.8845 29.304 44.5859 28.472C43.4765 30.264 42.0792 31.16 40.3939 31.16ZM41.5459 27.928C42.0152 27.928 42.4632 27.6507 42.8899 27.096C43.3165 26.5413 43.6259 25.8053 43.8179 24.888L45.0019 19C44.1059 19.0213 43.2739 19.3627 42.5059 20.024C41.7592 20.664 41.1619 21.5173 40.7139 22.584C40.2659 23.6507 40.0419 24.7813 40.0419 25.976C40.0419 26.6373 40.1699 27.128 40.4259 27.448C40.7032 27.768 41.0765 27.928 41.5459 27.928ZM67.6416 21.272C67.7056 21.2507 67.8123 21.24 67.9616 21.24C68.2816 21.24 68.527 21.3467 68.6976 21.56C68.8683 21.7733 68.9536 22.0613 68.9536 22.424C68.9536 23.0853 68.8256 23.608 68.5696 23.992C68.3136 24.3547 67.9296 24.6213 67.4176 24.792C66.4363 25.112 65.391 25.272 64.2816 25.272C63.343 25.272 62.4576 25.144 61.6256 24.888C61.007 25.8907 60.3243 26.9253 59.5776 27.992C58.7243 29.208 57.9883 30.04 57.3696 30.488C56.751 30.936 56.047 31.16 55.2576 31.16C54.383 31.16 53.6896 30.8187 53.1776 30.136C52.687 29.4533 52.3776 28.376 52.2496 26.904C51.9936 23.9173 51.8656 21.304 51.8656 19.064V17.944C51.887 17.24 52.079 16.7493 52.4416 16.472C52.8043 16.1947 53.3483 16.056 54.0736 16.056C54.6283 16.056 55.0336 16.184 55.2896 16.44C55.567 16.6747 55.7056 17.08 55.7056 17.656C55.7056 20.1093 55.855 23.2987 56.1536 27.224C57.4336 25.3253 58.3936 23.8107 59.0336 22.68C58.7136 22.0613 58.5536 21.3253 58.5536 20.472C58.5536 19.7467 58.7136 19.0427 59.0336 18.36C59.3536 17.6773 59.791 17.1227 60.3456 16.696C60.9003 16.2693 61.5296 16.056 62.2336 16.056C62.8523 16.056 63.3536 16.28 63.7376 16.728C64.1216 17.1547 64.3136 17.784 64.3136 18.616C64.3136 19.576 64.0576 20.6747 63.5456 21.912C64.3563 21.8693 65.4336 21.7093 66.7776 21.432L67.6416 21.272ZM80.4486 23.864C80.726 23.864 80.9393 23.992 81.0886 24.248C81.2593 24.504 81.3446 24.856 81.3446 25.304C81.3446 26.1573 81.142 26.8187 80.7366 27.288C79.9473 28.248 78.8273 29.1333 77.3766 29.944C75.9473 30.7547 74.4113 31.16 72.7686 31.16C70.5286 31.16 68.79 30.552 67.5526 29.336C66.3153 28.12 65.6966 26.456 65.6966 24.344C65.6966 22.872 66.006 21.5067 66.6246 20.248C67.2433 18.968 68.0966 17.9547 69.1846 17.208C70.294 16.4613 71.542 16.088 72.9286 16.088C74.166 16.088 75.158 16.4613 75.9046 17.208C76.6513 17.9333 77.0246 18.9253 77.0246 20.184C77.0246 21.656 76.4913 22.9253 75.4246 23.992C74.3793 25.0373 72.598 25.8693 70.0806 26.488C70.614 27.4693 71.6273 27.96 73.1206 27.96C74.0806 27.96 75.1686 27.6293 76.3846 26.968C77.622 26.2853 78.6886 25.4 79.5846 24.312C79.8406 24.0133 80.1286 23.864 80.4486 23.864ZM72.3846 19.224C71.5953 19.224 70.9233 19.6827 70.3686 20.6C69.8353 21.5173 69.5686 22.6267 69.5686 23.928V23.992C70.8273 23.6933 71.8193 23.2453 72.5446 22.648C73.27 22.0507 73.6326 21.3573 73.6326 20.568C73.6326 20.1627 73.5153 19.8427 73.2806 19.608C73.0673 19.352 72.7686 19.224 72.3846 19.224ZM87.9871 26.488C88.2218 26.2747 88.4565 26.168 88.6911 26.168C88.9471 26.168 89.1498 26.3173 89.2991 26.616C89.4698 26.8933 89.5551 27.2347 89.5551 27.64C89.5551 28.536 89.2351 29.2507 88.5951 29.784C87.4858 30.7013 86.2271 31.16 84.8191 31.16C82.7925 31.16 81.3098 30.3173 80.3711 28.632C79.4325 26.9253 78.9631 24.7067 78.9631 21.976C78.9631 19.3733 79.2938 16.408 79.9551 13.08C80.6378 9.752 81.6298 6.89333 82.9311 4.504C84.2538 2.11466 85.8218 0.919998 87.6351 0.919998C88.6591 0.919998 89.4591 1.4 90.0351 2.36C90.6325 3.29867 90.9311 4.65333 90.9311 6.424C90.9311 8.96267 90.2271 11.9067 88.8191 15.256C87.4325 18.6053 85.5338 21.912 83.1231 25.176C83.2725 26.0507 83.5391 26.68 83.9231 27.064C84.3071 27.448 84.8298 27.64 85.4911 27.64C85.8538 27.64 86.2591 27.5333 86.7071 27.32C87.1765 27.1067 87.6031 26.8293 87.9871 26.488ZM86.9311 4.088C86.4405 4.088 85.8858 4.97333 85.2671 6.744C84.6485 8.51467 84.1045 10.712 83.6351 13.336C83.1658 15.96 82.9098 18.4773 82.8671 20.888C84.3818 18.392 85.5871 15.896 86.4831 13.4C87.3791 10.8827 87.8271 8.58933 87.8271 6.52C87.8271 4.89867 87.5285 4.088 86.9311 4.088Z" fill="white"/>
</svg>
